<?xml version="1.0" standalone="no"?><!DOCTYPE svg PUBLIC "-//W3C//DTD SVG 1.1//EN" "http://www.w3.org/Graphics/SVG/1.1/DTD/svg11.dtd"><svg t="1522220988413" class="icon" style="" viewBox="0 0 1024 1024" version="1.1" xmlns="http://www.w3.org/2000/svg" p-id="945" xmlns:xlink="http://www.w3.org/1999/xlink" width="200" height="200"><defs><style type="text/css"></style></defs><path d="M391.460571 275.968q9.142857 0 15.725714-6.582857t6.582857-15.725714-6.582857-15.725714-15.725714-6.582857-15.433143 6.582857-6.290286 15.725714 6.290286 15.725714 15.433143 6.582857zM632.539429 275.968q9.142857 0 15.433143-6.582857t6.290286-15.725714-6.290286-15.725714-15.433143-6.582857-15.725714 6.582857-6.582857 15.725714 6.582857 15.725714 15.725714 6.582857zM168.594286 381.147429q23.990857 0 41.179429 17.115429t17.115429 41.179429l0 245.686857q0 24.576-16.822857 41.691429t-41.398857 17.115429-41.691429-17.115429-17.115429-41.691429l0-245.686857q0-23.990857 17.115429-41.179429t41.691429-17.115429zM774.290286 391.972571l0 380.562286q0 26.258286-18.285714 44.544t-44.032 18.285714l-42.861714 0 0 129.682286q0 24.576-17.115429 41.691429t-41.691429 17.115429-41.691429-17.115429-17.115429-41.691429l0-129.682286-78.848 0 0 129.682286q0 24.576-17.115429 41.691429t-41.691429 17.115429q-23.990857 0-41.179429-17.115429t-17.115429-41.691429l-0.585143-129.682286-42.276571 0q-26.258286 0-44.544-18.285714t-18.285714-44.544l0-380.562286 524.580571 0zM641.682286 160.548571q61.147429 31.451429 97.718857 87.698286t36.571429 123.172571l-528.603429 0q0-66.852571 36.571429-123.172571t98.304-87.698286l-40.594286-74.825143q-4.022857-7.460571 2.852571-11.410286 7.460571-3.437714 11.410286 3.437714l41.179429 75.410286q54.272-23.990857 114.834286-23.990857t114.834286 23.990857l41.179429-75.410286q4.022857-6.875429 11.410286-3.437714 6.875429 4.022857 2.852571 11.410286zM914.285714 439.442286l0 245.686857q0 24.576-17.115429 41.691429t-41.691429 17.115429q-23.990857 0-41.179429-17.115429t-17.115429-41.691429l0-245.686857q0-24.576 17.115429-41.398857t41.179429-16.822857q24.576 0 41.691429 16.822857t17.115429 41.398857z" fill="#8dc059" p-id="946"></path></svg>